PathFileType	4	(X/Y/Z)	0_1_24_p0_0-342.trc
DataRate	CameraRate	NumFrames	NumMarkers	Units	OrigDataRate	OrigDataStartFrame	OrigNumFrames
60	60	5	27	m	60	42	342
Frame#	Time	RHip			RKnee			RAnkle			RBigToe			RSmallToe			RHeel			LHip			LKnee			LAnkle			LBigToe			LSmallToe			LHeel			Neck			Head			Nose			RShoulder			RElbow			RWrist			RThumb			RIndex			RPinky			LShoulder			LElbow			LWrist			LThumb			LIndex			LPinky		
		X1	Y1	Z1	X2	Y2	Z2	X3	Y3	Z3	X4	Y4	Z4	X5	Y5	Z5	X6	Y6	Z6	X7	Y7	Z7	X8	Y8	Z8	X9	Y9	Z9	X10	Y10	Z10	X11	Y11	Z11	X12	Y12	Z12	X13	Y13	Z13	X14	Y14	Z14	X15	Y15	Z15	X16	Y16	Z16	X17	Y17	Z17	X18	Y18	Z18	X19	Y19	Z19	X20	Y20	Z20	X21	Y21	Z21	X22	Y22	Z22	X23	Y23	Z23	X24	Y24	Z24	X25	Y25	Z25	X26	Y26	Z26	X27	Y27	Z27
43	0.7166666666666667	0.1217936925796748	0.21896917746933448	0.03974976784844792	0.12403954877970336	0.2274298237331519	-0.4066349677898107	0.1543836193870216	0.2029442013346691	-0.786836264780886	0.1715245955237556	0.06670648704394253	-0.7946442353546977	0.09876281878427108	0.08367431669077717	-0.7977833142260693	0.16050643200587858	0.23922763689527335	-0.8361556497743641	0.33419544444621097	0.246883316987955	0.026668244243736115	0.3414956237081928	0.21335231649999023	-0.3945737654032703	0.351355863105963	0.25005559262095695	-0.8313928749453497	0.3215394799877175	0.05893258667174307	-0.7831904142700956	0.36984497440570285	0.1112764599732695	-0.803751156014971	0.3408117600798829	0.28944001750403003	-0.8856285509089158	0.21722032965883406	0.27906708592472407	0.5357465175908875	0.18575780605948036	0.20698569259040797	0.7940485656884333	0.18403834930123417	0.1548357714833486	0.6647935917086789	0.0542150028118674	0.26140149582313293	0.48075788611495945	0.011805836257610367	0.22220394651710831	0.23514146251047688	0.10990895191758211	0.09104794561505235	0.03596958691246134	0.20665117297797994	0.029264045793413816	-0.009885396037899811	0.20800626264082944	0.04462807741285819	-0.051838614844057954	0.17301010597229244	0.07365920868104102	-0.06347324800663262	0.36023444322518694	0.25856737739113356	0.47912933061604457	0.4245284770001548	0.2634975557690507	0.2060227441690039	0.30537823564905886	0.07616219314339971	0.07723228577911027	0.22771571664253615	0.005806791717593797	0.05952209214519944	0.21938691773968477	-0.009081057171828581	0.014753823198315122	0.2527394406224568	0.0567662783702146	-0.04251583555628321
44	0.7333333333333333	0.12127254865578564	0.22020225400203514	0.04350666637071616	0.12485747623693295	0.22619527981703189	-0.40162904020934176	0.1543860081142295	0.2028747899465912	-0.7868020722833284	0.1668045142578418	0.05347966344479747	-0.7842960192330036	0.09880311056942845	0.08368785930072663	-0.7977896880672306	0.16037727212125183	0.2392138493487992	-0.836364225237343	0.3264313436249731	0.24658342153902288	0.0351941392900314	0.33608032923784475	0.1982528197465215	-0.38127932428800243	0.35072115948920424	0.25121624499027884	-0.8372336907496613	0.3216783988693633	0.058746938366400214	-0.7831702925888858	0.3699241883316466	0.11120626171534109	-0.8037703761395201	0.3408514441644627	0.2892135671726606	-0.8855953959752703	0.217229460649008	0.2789580015960125	0.5357739980040097	0.18464521536955728	0.19839224217063256	0.7986036385909052	0.18405025976203648	0.15487939761856526	0.6648219781636089	0.05421002855820729	0.26140496992170853	0.4807703187109084	0.01185061043827781	0.22239678267322024	0.2351382056742717	0.10156441073699687	0.09096200484954645	0.04021287361423924	0.19791375451210869	0.039584805773555595	-0.020313503105839223	0.1960425102783068	0.05817899889620109	-0.05772031223507547	0.16848515856169982	0.07497094231568069	-0.0642820140888386	0.3602357226000649	0.2586093204240818	0.47917694335801414	0.4245839216569562	0.26358479335363444	0.20609095820004406	0.3114150309324669	0.08728963092774197	0.07690617136373325	0.22787810106970022	0.005875823376211496	0.059733257454691685	0.22344610695913739	-0.010568972653408412	0.02343776804298298	0.2561124962651924	0.0449452829415918	-0.03306174373271812
45	0.75	0.12132469546192834	0.2200058937051142	0.043914225589922765	0.12414331212174065	0.22770763358705545	-0.39796516931757403	0.15435254782911717	0.2027532580141965	-0.7867527688590444	0.16674701364307842	0.05320038445029397	-0.7841254815702621	0.09876087479076602	0.08361053493379829	-0.7977863519913653	0.16425847272097313	0.23651177992401745	-0.8347336109437077	0.3265353465755493	0.24651949598620973	0.03950536546431278	0.33579641336849325	0.19623933225570067	-0.3848629750175668	0.35044104952865646	0.25091658054722665	-0.8271893112552492	0.32169203912040806	0.0589622773568117	-0.7832670563922355	0.3760231619729223	0.1243590062023082	-0.813856286363587	0.34088189974709726	0.28958538901100755	-0.8856969362463194	0.21728001245226858	0.2789699911951441	0.5357770893896552	0.18845459106128543	0.19692935039938653	0.7988319435974341	0.18409621980242424	0.15487379400887616	0.6648092484726226	0.054480745410816385	0.2607419440058652	0.4846448152558303	0.01183119690681074	0.22248399105887565	0.23514893656342273	0.0897082177701529	0.10497059439881522	0.030460256941595935	0.18550471491460377	0.05071686593466714	-0.030191270660518653	0.17968388233733928	0.058548299957348705	-0.0611084549392203	0.16707299067580883	0.076034001840011	-0.06945076533636348	0.3603004485057261	0.25855288870882964	0.47913234772732755	0.42489992171194374	0.2627370142846457	0.21007859826852127	0.31170586618055224	0.08615601759230007	0.08143759198678485	0.22809788085352717	0.005762732270324133	0.05954064584413793	0.22668126049939438	-0.021701106327802935	0.036809876936841054	0.2603013760511834	0.033150776794586743	-0.015765376148217426
46	0.7666666666666667	0.12137757572370014	0.22035862346260413	0.044077995023867944	0.12955859227997601	0.2413833489241097	-0.4100345584584717	0.15467114832266202	0.20459998699458695	-0.7834376840482319	0.1667036658417645	0.05319023159492701	-0.7840206213563444	0.09996564330048892	0.08463496556225096	-0.7983376579797993	0.16021599124007083	0.23924302486927584	-0.8364593148439544	0.3296456869103492	0.2727312171734979	0.029146025372395724	0.34247006364806903	0.18298814267953487	-0.37292069996692245	0.35069135642074956	0.25109300436765675	-0.8371769016716624	0.32162667593504146	0.05862262219045862	-0.7830234177505612	0.3698943205145162	0.11104338209661767	-0.8036764819913544	0.34102506078465966	0.28902084298172004	-0.885589896430664	0.21726868311213576	0.2790403185542713	0.5357558680348486	0.18844284103262743	0.19702280242732628	0.798822219320528	0.18412945158768254	0.15476929129917139	0.6648238921528107	0.058474758948287485	0.2595843222891137	0.48121618147527634	0.011755315874836757	0.2229474762506285	0.235022850399181	0.08094946058327368	0.09386447061404271	0.03530483965993987	0.17032586900692284	0.051082305620018635	-0.03702407483953372	0.16600788612630535	0.049024338576339206	-0.05682006122725021	0.15983832296711267	0.08843098526386158	-0.07522131600459364	0.36033761944237747	0.2586385862489652	0.4791387391736523	0.42496482374266653	0.2630160007384582	0.2101998639902006	0.31745923812262244	0.0987760273415954	0.07665403748546563	0.23290249905458407	0.017673252718076765	0.05428120898578664	0.2315414004490754	-0.010575355890621087	0.03234094588662242	0.26530417126912625	0.028729965425513003	-0.013463450631570865
47	0.7833333333333333	0.11815677596256377	0.231957340091097	0.039566482543554125	0.12939964192484602	0.24154565727666236	-0.40996736476290546	0.15555125688444366	0.20373920989183636	-0.7879884132258297	0.16663286882093079	0.05279006823182068	-0.7837050817341453	0.09994128176168608	0.08440986466988928	-0.7981398482086834	0.16108031109026189	0.23868748352811486	-0.8417248965763975	0.32488229781915645	0.27575633885797945	0.03207691155713385	0.3422202375961593	0.18113710033631583	-0.3764961886122671	0.3506900973573888	0.25103543725211247	-0.8371859729676944	0.32170242410660627	0.05852889210461563	-0.7830288550726827	0.3759888526555423	0.12419235832194045	-0.8137797305565271	0.34091309341388876	0.2890866710213809	-0.8856214765511511	0.21736800185321903	0.27906595880786206	0.5358065766785396	0.18844134092628842	0.19697650284552454	0.7988490511073841	0.18415443293492564	0.15474173944435465	0.6648339100718154	0.058913085777234094	0.2589693833630694	0.4852945781788263	0.011475609490564807	0.22387790945985162	0.23858503362637073	0.08062180304726485	0.09399739317779023	0.035313988019500434	0.1700579583440398	0.05188214412426851	-0.04497141767845408	0.16326355586399594	0.06025239248215161	-0.06232274306356805	0.14981609930717787	0.09883299402909232	-0.0800522499912913	0.3603202808720379	0.2585331500601742	0.47929573483986454	0.4250465825314475	0.26326632373931785	0.21030754301126947	0.3129328069923778	0.08544268175140075	0.08642298042613897	0.2330551504981112	0.017638521576378397	0.05450123492888186	0.2321526808150409	-0.011606667744658123	0.03717187379146529	0.2781677696627984	0.037281413350185935	-0.010348585638332113
